<svg width="1200" height="630" viewBox="0 0 1200 630" fill="none" xmlns="http://www.w3.org/2000/svg">
  <rect width="1200" height="630" fill="#F9F6F1"/>
  <circle cx="1030" cy="-35" r="360" fill="#F0E8DB"/>
  <circle cx="1120" cy="625" r="280" fill="#F4EEE5"/>
  <g transform="translate(100 100) scale(1.35)">
    <path d="M22 22H86V86H47.6C38.6392 86 34.1587 86 30.7362 84.2561C27.7256 82.7221 25.2779 80.2744 23.7439 77.2638C22 73.8413 22 69.3608 22 60.4V22Z" stroke="#806B4B" stroke-width="6" stroke-linejoin="round"/>
    <path d="M86 54H54V22H60.4C69.3608 22 73.8413 22 77.2639 23.7439C80.2744 25.2779 82.7221 27.7256 84.2561 30.7362C86 34.1587 86 38.6392 86 47.6V54Z" stroke="#806B4B" stroke-width="6" stroke-linejoin="round"/>
    <path d="M40 40.1863L54.1863 26L68.3726 40.1863L67.7627 40.7961C63.0105 45.5483 60.6344 47.9244 57.8945 48.8147C55.4844 49.5978 52.8882 49.5978 50.4781 48.8147C47.7381 47.9244 45.362 45.5483 40.6098 40.7961L40 40.1863Z" stroke="#806B4B" stroke-width="6" stroke-linejoin="round"/>
  </g>
  <text x="100" y="350" fill="#2C2419" font-family="Georgia, serif" font-size="112" letter-spacing="-4">Lemma</text>
  <text x="105" y="425" fill="#675A48" font-family="Arial, sans-serif" font-size="32">A private, fast Wikipedia reader.</text>
  <path d="M105 477H510" stroke="#C8BBA8" stroke-width="2"/>
  <text x="105" y="525" fill="#897966" font-family="Arial, sans-serif" font-size="24" letter-spacing="2">EXPLORE KNOWLEDGE WITHOUT THE NOISE</text>
</svg>
