<svg width="24" height="24" viewBox="0 0 24 24" fill="none" xmlns="http://www.w3.org/2000/svg">
<path fill-rule="evenodd" clip-rule="evenodd" d="M10.2168 5.14551C13.0169 5.14572 15.3027 7.41555 15.3027 10.2207C15.3026 11.1205 15.0659 11.9643 14.6534 12.6962C14.5276 12.9195 14.6437 13.2233 14.8252 13.4043L17.8604 16.4316C18.2511 16.8216 18.2519 17.4547 17.8623 17.8457C17.4723 18.2367 16.8393 18.2375 16.4482 17.8477L13.4131 14.8203C13.2302 14.6379 12.9233 14.5207 12.698 14.647C11.9633 15.059 11.117 15.2949 10.2168 15.2949C7.41672 15.2949 5.13124 13.0257 5.13086 10.2207C5.13086 7.41542 7.41649 5.14551 10.2168 5.14551ZM10.2168 6.64551C8.23994 6.64551 6.63086 8.24882 6.63086 10.2207C6.63124 12.1923 8.24018 13.7949 10.2168 13.7949C12.1932 13.7947 13.8023 12.1921 13.8027 10.2207C13.8027 8.24894 12.1935 6.64572 10.2168 6.64551Z" fill="white"/>
</svg>
